<svg width="136" height="41" viewBox="0 0 136 41" xmlns="http://www.w3.org/2000/svg"><title>Atoms / Logo - Colour</title><defs><linearGradient x1="57.483%" y1="0%" x2="57.483%" y2="100%" id="a"><stop stop-color="#F6BE23" offset="0%"/><stop stop-color="#FF5A00" offset="100%"/></linearGradient></defs><g fill="none" fill-rule="evenodd"><path d="M118.645 18.091c0-.54-.194-.96-.581-1.26-.386-.3-.903-.45-1.547-.45-.235 0-.435.005-.599.018a5.919 5.919 0 0 0-.562.07v3.563a6.81 6.81 0 0 0 .95.052c.715 0 1.284-.167 1.706-.501.422-.336.633-.833.633-1.492zm.528 8.626l-2.2-4.216a1.98 1.98 0 0 1-.254.018h-.255a15.343 15.343 0 0 1-1.108-.035v4.233h-2.991V13.91a45.515 45.515 0 0 1 1.742-.15 30.67 30.67 0 0 1 2.058-.062c1.008 0 1.864.112 2.568.336.703.223 1.281.528 1.733.916.45.388.78.845.985 1.367.205.524.308 1.08.308 1.668a4.13 4.13 0 0 1-.581 2.143 4.498 4.498 0 0 1-1.635 1.596l3.025 4.992h-3.395zm-47.288 0h2.99v-12.93h-2.99zm11.65.105h-.351l-6.158-13.035h3.43l2.938 6.985 2.938-6.985h3.36zm9.732-7.849l-1.284 3.105h2.551l-1.267-3.105zm3.184 7.744l-.967-2.346h-4.45l-.968 2.346h-3.044l6.07-13.035h.404l6.07 13.035H96.45zm5.178 0v-12.93h2.99v10.196h5.172v2.734zM65.25 18.091c0-.54-.193-.96-.58-1.26-.386-.3-.903-.45-1.547-.45a7.81 7.81 0 0 0-.598.018 5.919 5.919 0 0 0-.563.07v3.563a6.81 6.81 0 0 0 .95.052c.715 0 1.284-.167 1.706-.501.422-.336.633-.833.633-1.492zm.53 8.626l-2.2-4.216a1.98 1.98 0 0 1-.255.018h-.255a15.344 15.344 0 0 1-1.108-.035v4.233h-2.99V13.91a45.515 45.515 0 0 1 1.74-.15 30.67 30.67 0 0 1 2.059-.062c1.008 0 1.864.112 2.568.336.704.223 1.281.528 1.733.916.451.388.78.845.985 1.367.205.524.308 1.08.308 1.668 0 .775-.194 1.49-.58 2.143a4.5 4.5 0 0 1-1.636 1.596l3.026 4.992h-3.396zm65.501-5.115v5.115h-2.99v-5.133l-4.54-7.797h3.43l2.64 4.957 2.639-4.957h3.36z" fill="#FAFAFA"/><path d="M45.594.8v38.93" stroke="#02999F" stroke-linecap="square"/><path d="M15.65 15.653V7.875h3.878a3.884 3.884 0 0 1 3.878 3.889 3.884 3.884 0 0 1-3.878 3.889h-3.879zM19.527.097H.135l7.757 7.778v7.778H.135l7.757 7.778v7.777h7.757v-7.777h3.758l3.757 7.777h7.757l-4.763-9.859a11.66 11.66 0 0 0 5.005-9.585c0-6.443-5.209-11.667-11.635-11.667z" fill="url(#a)" transform="translate(.333 4.572)"/><path fill="#E07500" d="M15.983 20.225l-7.758-1.023v1.023zm0-7.777H8.225v.972l7.758 2.916z"/><path fill="#DA5100" d="M15.983 28.003H8.225v1.945l7.758 1.944zm10.482-1.922a11.482 11.482 0 0 1-6.485 1.988h-.119l2.253 4.642c2.407-.161 4.874-.457 6.639-1.857l-2.288-4.773z"/></g></svg>